<mxfile host="app.diagrams.net" modified="2023-05-16T11:08:28.053Z" agent="Mozilla/5.0 (Windows NT 10.0; Win64; x64; rv:102.0) Gecko/20100101 Firefox/102.0" etag="Jqpzs8kcqET2f-KN27hs" version="21.3.2" type="device">
  <diagram name="Seite-1" id="9co04QmEE0R0oi6VNs9X">
    <mxGraphModel dx="1309" dy="702" grid="1" gridSize="10" guides="1" tooltips="1" connect="1" arrows="1" fold="1" page="1" pageScale="1" pageWidth="827" pageHeight="1169" math="0" shadow="0">
      <root>
        <mxCell id="0" />
        <mxCell id="1" parent="0" />
        <mxCell id="28d11MB7t_VA5oIBtJsD-2" value="&lt;b&gt;Consumer App&lt;/b&gt;" style="rounded=1;whiteSpace=wrap;html=1;fillColor=#dae8fc;strokeColor=#6c8ebf;" parent="1" vertex="1">
          <mxGeometry x="50" y="452" width="136" height="78" as="geometry" />
        </mxCell>
        <mxCell id="28d11MB7t_VA5oIBtJsD-3" value="request via post http:\&amp;nbsp; api" style="endArrow=classic;html=1;rounded=0;entryX=-0.033;entryY=0.371;entryDx=0;entryDy=0;entryPerimeter=0;exitX=0.993;exitY=0.372;exitDx=0;exitDy=0;exitPerimeter=0;" parent="1" source="28d11MB7t_VA5oIBtJsD-2" target="28d11MB7t_VA5oIBtJsD-4" edge="1">
          <mxGeometry x="-0.095" y="18" width="50" height="50" relative="1" as="geometry">
            <mxPoint x="197" y="488" as="sourcePoint" />
            <mxPoint x="402" y="487" as="targetPoint" />
            <mxPoint as="offset" />
          </mxGeometry>
        </mxCell>
        <mxCell id="28d11MB7t_VA5oIBtJsD-4" value="&lt;b&gt;BPN Discovery&lt;/b&gt;" style="rounded=1;whiteSpace=wrap;html=1;fillColor=#fff2cc;strokeColor=#d6b656;" parent="1" vertex="1">
          <mxGeometry x="410" y="441" width="120" height="105" as="geometry" />
        </mxCell>
        <mxCell id="28d11MB7t_VA5oIBtJsD-6" value="" style="endArrow=classic;html=1;rounded=0;exitX=0.017;exitY=0.648;exitDx=0;exitDy=0;exitPerimeter=0;" parent="1" source="28d11MB7t_VA5oIBtJsD-4" edge="1">
          <mxGeometry width="50" height="50" relative="1" as="geometry">
            <mxPoint x="400" y="510" as="sourcePoint" />
            <mxPoint x="190" y="510" as="targetPoint" />
          </mxGeometry>
        </mxCell>
        <mxCell id="28d11MB7t_VA5oIBtJsD-8" value="&lt;font style=&quot;font-size: 11px;&quot;&gt;response via &lt;font style=&quot;font-size: 11px;&quot;&gt;post http:\ &lt;/font&gt;&lt;/font&gt;" style="text;html=1;align=center;verticalAlign=middle;resizable=0;points=[];autosize=1;strokeColor=none;fillColor=none;" parent="1" vertex="1">
          <mxGeometry x="232" y="513" width="140" height="30" as="geometry" />
        </mxCell>
        <mxCell id="28d11MB7t_VA5oIBtJsD-9" value="&lt;b&gt;Data Provider &lt;/b&gt;" style="rounded=1;whiteSpace=wrap;html=1;fillColor=#dae8fc;strokeColor=#6c8ebf;" parent="1" vertex="1">
          <mxGeometry x="599" y="596" width="150" height="75" as="geometry" />
        </mxCell>
        <mxCell id="28d11MB7t_VA5oIBtJsD-10" value="" style="endArrow=classic;html=1;rounded=0;entryX=0.983;entryY=0.943;entryDx=0;entryDy=0;entryPerimeter=0;" parent="1" target="28d11MB7t_VA5oIBtJsD-4" edge="1">
          <mxGeometry width="50" height="50" relative="1" as="geometry">
            <mxPoint x="600" y="600" as="sourcePoint" />
            <mxPoint x="530" y="560" as="targetPoint" />
          </mxGeometry>
        </mxCell>
        <mxCell id="28d11MB7t_VA5oIBtJsD-11" value="&lt;font style=&quot;font-size: 11px;&quot;&gt;post request via http:\&lt;/font&gt;&lt;font style=&quot;font-size: 11px;&quot;&gt;&lt;br&gt;&lt;/font&gt;&lt;div style=&quot;font-size: 11px;&quot;&gt;&lt;font style=&quot;font-size: 11px;&quot;&gt;&lt;i&gt;&lt;font style=&quot;font-size: 11px;&quot;&gt;register his types and keys&lt;/font&gt;&lt;/i&gt;&lt;/font&gt;&lt;/div&gt;" style="text;html=1;align=center;verticalAlign=middle;resizable=0;points=[];autosize=1;strokeColor=none;fillColor=none;" parent="1" vertex="1">
          <mxGeometry x="563" y="538" width="160" height="40" as="geometry" />
        </mxCell>
        <mxCell id="28d11MB7t_VA5oIBtJsD-13" value="&lt;b&gt;Discovery Finder&lt;/b&gt;" style="rounded=1;whiteSpace=wrap;html=1;fillColor=#dae8fc;strokeColor=#6c8ebf;" parent="1" vertex="1">
          <mxGeometry x="400" y="200" width="120" height="60" as="geometry" />
        </mxCell>
        <mxCell id="28d11MB7t_VA5oIBtJsD-14" value="" style="endArrow=classic;html=1;rounded=0;entryX=0.5;entryY=1;entryDx=0;entryDy=0;" parent="1" target="28d11MB7t_VA5oIBtJsD-13" edge="1">
          <mxGeometry width="50" height="50" relative="1" as="geometry">
            <mxPoint x="460" y="440" as="sourcePoint" />
            <mxPoint x="460" y="300" as="targetPoint" />
          </mxGeometry>
        </mxCell>
        <mxCell id="28d11MB7t_VA5oIBtJsD-16" value="&lt;font style=&quot;font-size: 11px;&quot;&gt;post request via http:\&lt;/font&gt;&lt;div style=&quot;font-size: 11px;&quot;&gt;&lt;font style=&quot;font-size: 11px;&quot;&gt;&lt;i&gt;registers himself at startup&lt;/i&gt;&lt;/font&gt;&lt;/div&gt;" style="text;html=1;align=center;verticalAlign=middle;resizable=0;points=[];autosize=1;strokeColor=none;fillColor=none;" parent="1" vertex="1">
          <mxGeometry x="459" y="343" width="160" height="40" as="geometry" />
        </mxCell>
        <mxCell id="9hNxl6LyJkBVafe8ajho-1" value="Keycloak" style="rounded=1;whiteSpace=wrap;html=1;fillColor=#dae8fc;strokeColor=#6c8ebf;" parent="1" vertex="1">
          <mxGeometry x="90" y="219" width="142" height="71" as="geometry" />
        </mxCell>
        <mxCell id="9hNxl6LyJkBVafe8ajho-2" value="" style="endArrow=classic;startArrow=classic;html=1;rounded=0;entryX=1;entryY=1;entryDx=0;entryDy=0;exitX=0;exitY=0.086;exitDx=0;exitDy=0;exitPerimeter=0;" parent="1" source="28d11MB7t_VA5oIBtJsD-4" target="9hNxl6LyJkBVafe8ajho-1" edge="1">
          <mxGeometry width="50" height="50" relative="1" as="geometry">
            <mxPoint x="400" y="440" as="sourcePoint" />
            <mxPoint x="440" y="430" as="targetPoint" />
          </mxGeometry>
        </mxCell>
        <mxCell id="9hNxl6LyJkBVafe8ajho-3" value="&lt;font style=&quot;font-size: 11px;&quot;&gt;&lt;i&gt;administrates the&lt;/i&gt;&lt;/font&gt;&lt;br&gt;&lt;div style=&quot;font-size: 11px;&quot;&gt;&lt;font style=&quot;font-size: 11px;&quot;&gt;&lt;i&gt;authorization token&lt;br&gt;&lt;/i&gt;&lt;/font&gt;&lt;/div&gt;" style="text;html=1;align=center;verticalAlign=middle;resizable=0;points=[];autosize=1;strokeColor=none;fillColor=none;" parent="1" vertex="1">
          <mxGeometry x="183" y="343" width="120" height="40" as="geometry" />
        </mxCell>
      </root>
    </mxGraphModel>
  </diagram>
</mxfile>
